<svg xmlns="http://www.w3.org/2000/svg" width="500" height="500" viewBox="0 0 500 500">
  <g id="Sliced_Pizza" data-name="Sliced Pizza" transform="translate(-960 491)">
    <g id="Subtraction_2" data-name="Subtraction 2" transform="translate(923 -458)" fill="none">
      <path d="M287,434a216.093,216.093,0,0,1-99.488-24.1L311.875,174.607,81.319,286.354A217.337,217.337,0,1,1,287,434Z" stroke="none"/>
      <path d="M 287.0001831054688 413.9998168945312 C 300.37939453125 413.9998168945312 313.7443237304688 412.6531372070312 326.7234802246094 409.9972839355469 C 339.3630981445312 407.4107666015625 351.7954711914062 403.551513671875 363.6752319335938 398.5268249511719 C 375.3440246582031 393.5912780761719 386.60009765625 387.4815368652344 397.1307067871094 380.3672180175781 C 407.5667114257812 373.3167419433594 417.3807067871094 365.2193603515625 426.3001708984375 356.2997436523438 C 435.219482421875 347.3805236816406 443.3168640136719 337.5665893554688 450.3674011230469 327.1305236816406 C 457.4817199707031 316.5999145507812 463.5914611816406 305.3438415527344 468.5270080566406 293.6749877929688 C 473.5518493652344 281.7949829101562 477.4111022949219 269.3627624511719 479.9974060058594 256.7235107421875 C 482.6533203125 243.7440643310547 484 230.3790588378906 484 216.9999084472656 C 484 203.6207580566406 482.6533203125 190.2557525634766 479.9974060058594 177.2762908935547 C 477.4111022949219 164.6370697021484 473.5518493652344 152.204833984375 468.5270080566406 140.3247528076172 C 463.5914611816406 128.6559906005859 457.4817199707031 117.3999099731445 450.3674621582031 106.8693695068359 C 443.3168640136719 96.43321990966797 435.219482421875 86.61929321289062 426.2999267578125 77.6998291015625 C 417.380615234375 68.78037261962891 407.5667114257812 60.68306350708008 397.1307067871094 53.6326789855957 C 386.60009765625 46.51829147338867 375.3440856933594 40.40852355957031 363.6752319335938 35.47306060791016 C 351.7954711914062 30.44829368591309 339.3630981445312 26.58906173706055 326.7236328125 24.00267791748047 C 300.7655944824219 18.69082450866699 273.2346496582031 18.69083595275879 247.2765502929688 24.00267791748047 C 234.6371612548828 26.58906173706055 222.2048645019531 30.44829368591309 210.3249359130859 35.47306060791016 C 198.6560974121094 40.40859985351562 187.4000091552734 46.51837158203125 176.8694763183594 53.6326789855957 C 166.4336242675781 60.68298721313477 156.6197052001953 68.78037261962891 147.7000885009766 77.69998168945312 C 138.7804718017578 86.61959838867188 130.6830902099609 96.43352508544922 123.6328582763672 106.8692932128906 C 116.5185546875 117.3998336791992 110.4087829589844 128.6559143066406 105.4732437133789 140.3249053955078 C 100.4484786987305 152.2046051025391 96.58924865722656 164.6369018554688 94.00286102294922 177.2763671875 C 91.34693908691406 190.2554473876953 90.000244140625 203.6203765869141 90.000244140625 216.9999084472656 C 90.000244140625 230.8294982910156 91.42168426513672 244.5032348632812 94.23929595947266 257.8661193847656 L 358.0807800292969 129.9868316650391 L 215.1153717041016 400.4759216308594 C 223.1507720947266 403.6262817382812 231.3894195556641 406.2442932128906 239.7625579833984 408.3042297363281 C 255.1249389648438 412.0835266113281 271.0180053710938 413.9998168945312 287.0001831054688 413.9998168945312 M 287.0001831054688 433.9998168945312 C 269.4093322753906 433.9998168945312 251.9088592529297 431.888671875 234.9847869873047 427.7251281738281 C 218.5454711914062 423.6808166503906 202.5733947753906 417.683837890625 187.5121612548828 409.9008178710938 L 311.8751831054688 174.6072235107422 L 81.31932067871094 286.3536071777344 C 73.80809020996094 264.0722961425781 70.000244140625 240.7386016845703 70.000244140625 216.9999084472656 C 70.000244140625 202.2766723632812 71.48347473144531 187.5627593994141 74.40885925292969 173.2668304443359 C 77.25994110107422 159.3340606689453 81.51409149169922 145.6294403076172 87.05316925048828 132.5337524414062 C 92.49170684814453 119.6755218505859 99.22309112548828 107.2738342285156 107.0604019165039 95.67314147949219 C 114.8231658935547 84.18267822265625 123.7383193969727 73.37744903564453 133.5580139160156 63.55783081054688 C 143.3777770996094 53.73798370361328 154.1830139160156 44.82291030883789 165.6733245849609 37.06021499633789 C 177.2740173339844 29.22290802001953 189.6757049560547 22.49152374267578 202.533935546875 17.05298614501953 C 215.6296997070312 11.51390838623047 229.3343200683594 7.259754657745361 243.2670135498047 4.408677577972412 C 271.8586730957031 -1.442054867744446 302.1413269042969 -1.442127704620361 330.733154296875 4.408677577972412 C 344.6658630371094 7.259754657745361 358.3705444335938 11.51390838623047 371.46630859375 17.05298614501953 C 384.3245544433594 22.49152374267578 396.7261657714844 29.22290802001953 408.3268737792969 37.06021499633789 C 419.8173217773438 44.8229866027832 430.6224670410156 53.73798370361328 440.4421691894531 63.55783081054688 C 450.2618713378906 73.37737274169922 459.1769409179688 84.18260192871094 466.9398498535156 95.67314147949219 C 474.7771606445312 107.2739105224609 481.508544921875 119.6755981445312 486.9470825195312 132.5337524414062 C 492.4862365722656 145.6296844482422 496.7403869628906 159.3342895507812 499.5914001464844 173.2668304443359 C 502.5166931152344 187.5627593994141 504 202.2766723632812 504 216.9999084472656 C 504 231.72314453125 502.5166931152344 246.4370574951172 499.5914001464844 260.7329711914062 C 496.7403869628906 274.66552734375 492.4862365722656 288.3701477050781 486.9470825195312 301.466064453125 C 481.508544921875 314.32421875 474.7771606445312 326.7259216308594 466.9398498535156 338.3266906738281 C 459.1769409179688 349.8172302246094 450.2618713378906 360.6224365234375 440.4421691894531 370.4419860839844 C 430.6224670410156 380.2618408203125 419.8173217773438 389.1768188476562 408.3268737792969 396.9396667480469 C 396.7261657714844 404.7769165039062 384.3245544433594 411.50830078125 371.46630859375 416.9468994140625 C 358.3705444335938 422.4859008789062 344.6658630371094 426.7400512695312 330.733154296875 429.5912170410156 C 316.4373168945312 432.5165100097656 301.7233276367188 433.9998168945312 287.0001831054688 433.9998168945312 Z" stroke="none" fill="#000"/>
    </g>
    <g id="Subtraction_1" data-name="Subtraction 1" transform="translate(960 -491)" fill="none">
      <path d="M250,500a248.826,248.826,0,0,1-135.7-40L219.164,261.61,23.685,356.354a248.674,248.674,0,0,1-17.54-51.017A252.32,252.32,0,0,1,5.079,199.617,248.632,248.632,0,0,1,42.7,110.223,250.73,250.73,0,0,1,152.688,19.646,248.739,248.739,0,0,1,199.616,5.079a252.437,252.437,0,0,1,100.767,0A248.631,248.631,0,0,1,389.777,42.7a250.731,250.731,0,0,1,90.576,109.993,248.746,248.746,0,0,1,14.567,46.928,252.44,252.44,0,0,1,0,100.768A248.631,248.631,0,0,1,457.3,389.778a250.729,250.729,0,0,1-109.993,90.576,248.749,248.749,0,0,1-46.928,14.567A251.85,251.85,0,0,1,250,500ZM74.017,427.568c-2.615-2.592-5.211-5.281-7.715-7.992l7.717,7.991Z" stroke="none"/>
      <path d="M 249.9993438720703 480.0003967285156 C 265.6181030273438 480.0003967285156 281.2206726074219 478.4281616210938 296.3735961914062 475.3274230957031 C 311.1317443847656 472.3074035644531 325.6482543945312 467.8013305664062 339.5198364257812 461.9342346191406 C 353.1437683105469 456.1718139648438 366.2858276367188 449.038330078125 378.5809326171875 440.7319946289062 C 390.7640075683594 432.5012512207031 402.2211608886719 423.0480651855469 412.6340942382812 412.6350708007812 C 423.0469970703125 402.2222290039062 432.5001831054688 390.7649841308594 440.7310180664062 378.5818176269531 C 449.0371704101562 366.2869873046875 456.1706848144531 353.1448974609375 461.9331665039062 339.5208129882812 C 467.8002624511719 325.6493225097656 472.3064270019531 311.1328125 475.326416015625 296.3748168945312 C 478.42724609375 281.2208251953125 479.99951171875 265.6181640625 479.99951171875 250.000244140625 C 479.99951171875 234.3824157714844 478.42724609375 218.7799072265625 475.3265075683594 203.6262512207031 C 472.3064270019531 188.8678283691406 467.8002624511719 174.3514099121094 461.9332580566406 160.4801635742188 C 456.1709289550781 146.8563232421875 449.0374145507812 133.7143249511719 440.7310180664062 121.419075012207 C 432.5004272460938 109.2360763549805 423.0472412109375 97.77890777587891 412.6340026855469 87.36566162109375 C 402.2213439941406 76.95282745361328 390.76416015625 67.49966430664062 378.5808410644531 59.26874542236328 C 366.2861022949219 50.96249389648438 353.1440124511719 43.82907867431641 339.5198364257812 38.06649398803711 C 325.6479187011719 32.19924545288086 311.1315002441406 27.69299507141113 296.3736877441406 24.67316055297852 C 266.06689453125 18.47150993347168 233.9320068359375 18.47147941589355 203.6252593994141 24.67316055297852 C 188.8675842285156 27.69299507141113 174.3511657714844 32.19916152954102 160.4793395996094 38.06649398803711 C 146.8554229736328 43.82891082763672 133.7135009765625 50.96240997314453 121.4185028076172 59.26874542236328 C 109.2350921630859 67.49974060058594 97.77800750732422 76.95299530029297 87.36534118652344 87.36582946777344 C 76.95242309570312 97.77866363525391 67.49933624267578 109.2358245849609 59.26850509643555 121.419075012207 C 50.96225738525391 133.7140808105469 43.82875442504883 146.8561553955078 38.06625747680664 160.4802398681641 C 32.19908905029297 174.3515777587891 27.69300651550293 188.8679962158203 24.6730899810791 203.6260833740234 C 21.57225608825684 218.7799072265625 20.0000057220459 234.3824157714844 20.0000057220459 250.000244140625 C 20.0000057220459 267.1917419433594 21.90217208862305 284.3267517089844 25.65375518798828 300.9292297363281 C 27.81406593322754 310.4897766113281 30.59856796264648 319.9248352050781 33.97528076171875 329.1416625976562 L 265.3691711425781 216.989990234375 L 140.8793487548828 452.5222778320312 C 154.5457458496094 459.90283203125 168.9192352294922 465.8720092773438 183.7948455810547 470.3348999023438 C 205.1724243164062 476.7485046386719 227.4468383789062 480.0003967285156 249.9993438720703 480.0003967285156 M 249.9993438720703 500.0003967285156 C 225.4990081787109 500.0003967285156 201.2909240722656 496.4646606445312 178.0476684570312 489.4914245605469 C 155.5396728515625 482.7386474609375 134.0929260253906 472.8176574707031 114.3032531738281 460.0037536621094 L 219.1635131835938 261.6102294921875 L 23.68517303466797 356.3544006347656 C 16.0131721496582 340.0570068359375 10.11242294311523 322.8924865722656 6.145589351654053 305.33740234375 C 2.067672491073608 287.2905883789062 5.859375050931703e-06 268.6724243164062 5.859375050931703e-06 250.000244140625 C 5.859375050931703e-06 233.0382385253906 1.708922505378723 216.0867462158203 5.079089164733887 199.6166534423828 C 8.363672256469727 183.5651550292969 13.26475620269775 167.7764129638672 19.64617347717285 152.6891632080078 C 25.91183853149414 137.87548828125 33.66692352294922 123.5879135131836 42.69600677490234 110.2229919433594 C 51.63933944702148 96.98507690429688 61.91017150878906 84.53665924072266 73.22317504882812 73.22366333007812 C 84.53600311279297 61.91065979003906 96.98433685302734 51.63982772827148 110.2223358154297 42.69632720947266 C 123.5874252319336 33.66699600219727 137.875 25.91191101074219 152.6883392333984 19.64640998840332 C 167.7758331298828 13.26491069793701 183.5644989013672 8.363743782043457 199.6157531738281 5.079160690307617 C 232.5557556152344 -1.661339044570923 267.4429931640625 -1.661339044570923 300.3831787109375 5.079160690307617 C 316.4345092773438 8.363743782043457 332.2232666015625 13.26491069793701 347.3108520507812 19.64640998840332 C 362.1241760253906 25.91191101074219 376.4119262695312 33.66699600219727 389.7770080566406 42.69632720947266 C 403.0150146484375 51.63974380493164 415.4634094238281 61.91065979003906 426.7762451171875 73.22366333007812 C 438.0891723632812 84.53657531738281 448.3600769042969 96.98490905761719 457.3034973144531 110.2229919433594 C 466.332763671875 123.5881576538086 474.0878295898438 137.8757476806641 480.3533325195312 152.6891632080078 C 486.7345886230469 167.7761535644531 491.6356811523438 183.5648345947266 494.92041015625 199.6166534423828 C 498.2905883789062 216.0867462158203 499.99951171875 233.0382385253906 499.99951171875 250.000244140625 C 499.99951171875 266.9623413085938 498.2905883789062 283.9139099121094 494.92041015625 300.3841552734375 C 491.6356811523438 316.4359130859375 486.7345886230469 332.2245788574219 480.3533325195312 347.3117370605469 C 474.0877685546875 362.1251525878906 466.3326721191406 376.4129028320312 457.3034973144531 389.7779235839844 C 448.3600158691406 403.0159912109375 438.0891723632812 415.4643249511719 426.7762451171875 426.7772521972656 C 415.4632568359375 438.09033203125 403.0149230957031 448.3611755371094 389.7770080566406 457.3045043945312 C 376.4118347167969 466.333740234375 362.1241760253906 474.0888366699219 347.3108520507812 480.3543395996094 C 332.2234191894531 486.7356567382812 316.4346618652344 491.6367492675781 300.3831787109375 494.9214172363281 C 283.9131774902344 498.2916564941406 266.961669921875 500.0003967285156 249.9993438720703 500.0003967285156 Z M 74.01717376708984 427.5676574707031 C 71.40192413330078 424.9757385253906 68.80600738525391 422.2866516113281 66.30167388916016 419.5752563476562 L 74.01866912841797 427.5663146972656 L 74.01717376708984 427.5676574707031 Z" stroke="none" fill="#000"/>
    </g>
    <circle id="Ellipse_70" data-name="Ellipse 70" cx="17.5" cy="17.5" r="17.5" transform="translate(1054 -335)"/>
    <circle id="Ellipse_71" data-name="Ellipse 71" cx="17.5" cy="17.5" r="17.5" transform="translate(1129 -360)"/>
    <circle id="Ellipse_72" data-name="Ellipse 72" cx="17.5" cy="17.5" r="17.5" transform="translate(1116 -290)"/>
    <circle id="Ellipse_73" data-name="Ellipse 73" cx="17.5" cy="17.5" r="17.5" transform="translate(1107 -406)"/>
    <circle id="Ellipse_74" data-name="Ellipse 74" cx="17.5" cy="17.5" r="17.5" transform="translate(1179 -325)"/>
    <circle id="Ellipse_75" data-name="Ellipse 75" cx="17.5" cy="17.5" r="17.5" transform="translate(1186 -395)"/>
    <circle id="Ellipse_76" data-name="Ellipse 76" cx="17.5" cy="17.5" r="17.5" transform="translate(1227 -423)"/>
    <circle id="Ellipse_77" data-name="Ellipse 77" cx="17.5" cy="17.5" r="17.5" transform="translate(1252 -360)"/>
    <circle id="Ellipse_78" data-name="Ellipse 78" cx="17.5" cy="17.5" r="17.5" transform="translate(1287 -395)"/>
    <circle id="Ellipse_79" data-name="Ellipse 79" cx="17.5" cy="17.5" r="17.5" transform="translate(1313 -342)"/>
    <circle id="Ellipse_80" data-name="Ellipse 80" cx="17.5" cy="17.5" r="17.5" transform="translate(1252 -300)"/>
    <circle id="Ellipse_81" data-name="Ellipse 81" cx="17.5" cy="17.5" r="17.5" transform="translate(1305 -282)"/>
    <circle id="Ellipse_82" data-name="Ellipse 82" cx="17.5" cy="17.5" r="17.5" transform="translate(1365 -299)"/>
    <circle id="Ellipse_83" data-name="Ellipse 83" cx="17.5" cy="17.5" r="17.5" transform="translate(1354 -248)"/>
    <circle id="Ellipse_84" data-name="Ellipse 84" cx="17.5" cy="17.5" r="17.5" transform="translate(1256 -248)"/>
    <circle id="Ellipse_85" data-name="Ellipse 85" cx="17.5" cy="17.5" r="17.5" transform="translate(1337 -183)"/>
    <circle id="Ellipse_86" data-name="Ellipse 86" cx="17.5" cy="17.5" r="17.5" transform="translate(1296 -135)"/>
    <circle id="Ellipse_87" data-name="Ellipse 87" cx="17.5" cy="17.5" r="17.5" transform="translate(1288 -200)"/>
    <circle id="Ellipse_88" data-name="Ellipse 88" cx="17.5" cy="17.5" r="17.5" transform="translate(1239 -189)"/>
    <circle id="Ellipse_89" data-name="Ellipse 89" cx="17.5" cy="17.5" r="17.5" transform="translate(1245 -117)"/>
    <circle id="Ellipse_90" data-name="Ellipse 90" cx="17.5" cy="17.5" r="17.5" transform="translate(1186 -94)"/>
    <circle id="Ellipse_91" data-name="Ellipse 91" cx="17.5" cy="17.5" r="17.5" transform="translate(1196 -148)"/>
    <circle id="Ellipse_95" data-name="Ellipse 95" cx="17.5" cy="17.5" r="17.5" transform="translate(1019 -248)"/>
    <circle id="Ellipse_96" data-name="Ellipse 96" cx="17.5" cy="17.5" r="17.5" transform="translate(1025 -300)"/>
    <circle id="Ellipse_97" data-name="Ellipse 97" cx="17.5" cy="17.5" r="17.5" transform="translate(1072 -261)"/>
  </g>
</svg>
