<svg xmlns="http://www.w3.org/2000/svg" width="500" height="500" viewBox="0 0 500 500">
  <g id="Whole_Pizza" data-name="Whole Pizza" transform="translate(-423 492)">
    <g id="Ellipse_1" data-name="Ellipse 1" transform="translate(423 -492)" fill="none" stroke="#000" stroke-width="20">
      <circle cx="250" cy="250" r="250" stroke="none"/>
      <circle cx="250" cy="250" r="240" fill="none"/>
    </g>
    <circle id="Ellipse_3" data-name="Ellipse 3" cx="17.5" cy="17.5" r="17.5" transform="translate(518 -329)"/>
    <circle id="Ellipse_4" data-name="Ellipse 4" cx="17.5" cy="17.5" r="17.5" transform="translate(593 -354)"/>
    <circle id="Ellipse_5" data-name="Ellipse 5" cx="17.5" cy="17.5" r="17.5" transform="translate(580 -284)"/>
    <circle id="Ellipse_6" data-name="Ellipse 6" cx="17.5" cy="17.5" r="17.5" transform="translate(571 -400)"/>
    <circle id="Ellipse_7" data-name="Ellipse 7" cx="17.5" cy="17.5" r="17.5" transform="translate(642 -311)"/>
    <circle id="Ellipse_8" data-name="Ellipse 8" cx="17.5" cy="17.5" r="17.5" transform="translate(650 -389)"/>
    <circle id="Ellipse_9" data-name="Ellipse 9" cx="17.5" cy="17.5" r="17.5" transform="translate(691 -417)"/>
    <circle id="Ellipse_10" data-name="Ellipse 10" cx="17.5" cy="17.5" r="17.5" transform="translate(716 -354)"/>
    <circle id="Ellipse_11" data-name="Ellipse 11" cx="17.5" cy="17.5" r="17.5" transform="translate(751 -389)"/>
    <circle id="Ellipse_12" data-name="Ellipse 12" cx="17.5" cy="17.5" r="17.5" transform="translate(777 -336)"/>
    <circle id="Ellipse_13" data-name="Ellipse 13" cx="17.5" cy="17.5" r="17.5" transform="translate(709 -301)"/>
    <circle id="Ellipse_14" data-name="Ellipse 14" cx="17.5" cy="17.5" r="17.5" transform="translate(769 -276)"/>
    <circle id="Ellipse_15" data-name="Ellipse 15" cx="17.5" cy="17.5" r="17.5" transform="translate(829 -293)"/>
    <circle id="Ellipse_16" data-name="Ellipse 16" cx="17.5" cy="17.5" r="17.5" transform="translate(818 -242)"/>
    <circle id="Ellipse_17" data-name="Ellipse 17" cx="17.5" cy="17.5" r="17.5" transform="translate(720 -242)"/>
    <circle id="Ellipse_18" data-name="Ellipse 18" cx="17.5" cy="17.5" r="17.5" transform="translate(801 -177)"/>
    <circle id="Ellipse_19" data-name="Ellipse 19" cx="17.5" cy="17.5" r="17.5" transform="translate(760 -129)"/>
    <circle id="Ellipse_20" data-name="Ellipse 20" cx="17.5" cy="17.5" r="17.5" transform="translate(752 -194)"/>
    <circle id="Ellipse_21" data-name="Ellipse 21" cx="17.5" cy="17.5" r="17.5" transform="translate(703 -183)"/>
    <circle id="Ellipse_22" data-name="Ellipse 22" cx="17.5" cy="17.5" r="17.5" transform="translate(709 -111)"/>
    <circle id="Ellipse_23" data-name="Ellipse 23" cx="17.5" cy="17.5" r="17.5" transform="translate(650 -88)"/>
    <circle id="Ellipse_24" data-name="Ellipse 24" cx="17.5" cy="17.5" r="17.5" transform="translate(660 -142)"/>
    <circle id="Ellipse_25" data-name="Ellipse 25" cx="17.5" cy="17.5" r="17.5" transform="translate(545 -133)"/>
    <circle id="Ellipse_26" data-name="Ellipse 26" cx="17.5" cy="17.5" r="17.5" transform="translate(607 -123)"/>
    <circle id="Ellipse_27" data-name="Ellipse 27" cx="17.5" cy="17.5" r="17.5" transform="translate(518 -183)"/>
    <circle id="Ellipse_28" data-name="Ellipse 28" cx="17.5" cy="17.5" r="17.5" transform="translate(483 -242)"/>
    <circle id="Ellipse_29" data-name="Ellipse 29" cx="17.5" cy="17.5" r="17.5" transform="translate(489 -294)"/>
    <circle id="Ellipse_30" data-name="Ellipse 30" cx="17.5" cy="17.5" r="17.5" transform="translate(536 -242)"/>
    <circle id="Ellipse_31" data-name="Ellipse 31" cx="17.5" cy="17.5" r="17.5" transform="translate(576 -194)"/>
    <circle id="Ellipse_32" data-name="Ellipse 32" cx="17.5" cy="17.5" r="17.5" transform="translate(611 -249)"/>
    <circle id="Ellipse_33" data-name="Ellipse 33" cx="17.5" cy="17.5" r="17.5" transform="translate(668 -266)"/>
    <circle id="Ellipse_34" data-name="Ellipse 34" cx="17.5" cy="17.5" r="17.5" transform="translate(638 -204)"/>
    <g id="Ellipse_69" data-name="Ellipse 69" transform="translate(456 -459)" fill="none" stroke="#000" stroke-width="20">
      <circle cx="217" cy="217" r="217" stroke="none"/>
      <circle cx="217" cy="217" r="207" fill="none"/>
    </g>
  </g>
</svg>
